<?xml version="1.0" standalone="no"?>
<!DOCTYPE svg PUBLIC "-//W3C//DTD SVG 20010904//EN"
 "http://www.w3.org/TR/2001/REC-SVG-20010904/DTD/svg10.dtd">
<svg version="1.0" xmlns="http://www.w3.org/2000/svg"
 width="700.000000pt" height="700.000000pt" viewBox="0 0 700.000000 700.000000"
 preserveAspectRatio="xMidYMid meet">
<metadata>
Created by potrace 1.14, written by Peter Selinger 2001-2017
</metadata>
<g transform="translate(0.000000,700.000000) scale(0.100000,-0.100000)"
fill="#000000" stroke="none">
<path d="M1235 6120 l-250 -250 -110 106 c-60 58 -171 165 -245 238 -74 73
-140 135 -146 138 -7 5 -10 -746 -9 -2550 2 -2353 3 -2562 19 -2617 70 -253
301 -459 550 -492 28 -4 1144 -7 2481 -6 2253 0 2435 1 2495 17 257 67 463
288 507 546 8 44 10 5089 2 5101 -3 5 -14 -1 -26 -13 -11 -13 -85 -84 -164
-160 -79 -75 -184 -175 -234 -222 l-89 -86 -252 251 -252 252 -251 -252 -251
-251 -251 251 -251 251 -37 -36 c-20 -19 -133 -132 -251 -250 l-215 -216 -252
252 -253 252 -247 -252 -247 -252 -253 252 -253 253 -24 -25 c-13 -14 -127
-128 -254 -253 l-230 -229 -251 251 c-138 138 -252 251 -253 251 -2 0 -116
-112 -253 -250z m4630 -1760 l0 -364 -2363 -1 -2362 0 -1 30 c-1 38 -1 688 0
695 1 3 1064 5 2364 5 l2362 0 0 -365z m-2710 -950 l60 0 0 -1030 0 -1030
-1037 0 c-982 0 -1038 1 -1039 18 -3 98 0 2032 4 2038 4 7 1119 9 2012 4z
m2663 1 l52 -1 0 -370 0 -370 -1040 0 -1040 0 0 369 0 370 28 3 c21 2 1729 1
2000 -1z m52 -1693 l0 -368 -1040 0 -1040 0 0 363 c0 200 2 366 4 368 3 2 471
4 1040 4 l1036 1 0 -368z"/>
</g>
</svg>
